<?xml version="1.0" encoding="UTF-8" standalone="no"?>
<!-- Created with Inkscape (http://www.inkscape.org/) -->

<svg
   xmlns:dc="http://purl.org/dc/elements/1.1/"
   xmlns:cc="http://creativecommons.org/ns#"
   xmlns:rdf="http://www.w3.org/1999/02/22-rdf-syntax-ns#"
   xmlns:svg="http://www.w3.org/2000/svg"
   xmlns="http://www.w3.org/2000/svg"
   xmlns:xlink="http://www.w3.org/1999/xlink"
   xmlns:sodipodi="http://sodipodi.sourceforge.net/DTD/sodipodi-0.dtd"
   xmlns:inkscape="http://www.inkscape.org/namespaces/inkscape"
   width="200cm"
   height="100cm"
   viewBox="0 0 2000 999.99997"
   version="1.1"
   id="svg8"
   inkscape:version="0.92.2 (5c3e80d, 2017-08-06)"
   sodipodi:docname="spanduk-gnome.svg"
   inkscape:export-filename="/home/cho2/spanduk-gnome.png"
   inkscape:export-xdpi="89.992203"
   inkscape:export-ydpi="89.992203">
  <defs
     id="defs2">
    <linearGradient
       gradientTransform="matrix(2.4456434,0,0,2.4456434,-409.96571,-61.604208)"
       y2="71.306648"
       x2="201.69652"
       y1="31.667559"
       x1="201.69652"
       gradientUnits="userSpaceOnUse"
       id="linearGradient4301-1"
       xlink:href="#linearGradient6064-9"
       inkscape:collect="always" />
    <linearGradient
       inkscape:collect="always"
       id="linearGradient6064-9">
      <stop
         style="stop-color:#4f555a;stop-opacity:1"
         offset="0"
         id="stop6066-9" />
      <stop
         style="stop-color:#26292c;stop-opacity:1"
         offset="1"
         id="stop6068-5" />
    </linearGradient>
    <linearGradient
       id="linearGradient5705">
      <stop
         id="stop5707"
         offset="0"
         style="stop-color:#562200;stop-opacity:1;" />
      <stop
         id="stop5709"
         offset="1"
         style="stop-color:#341500;stop-opacity:1;" />
    </linearGradient>
    <linearGradient
       id="linearGradient5723">
      <stop
         id="stop5725"
         offset="0"
         style="stop-color:#a40;stop-opacity:1;" />
      <stop
         id="stop5727"
         offset="1"
         style="stop-color:#762f00;stop-opacity:1;" />
    </linearGradient>
    <clipPath
       id="clipPath11622"
       clipPathUnits="userSpaceOnUse">
      <g
         id="g11624"
         transform="matrix(0.96968375,0,0,0.96968375,2344.6611,919.3584)">
        <g
           id="g11626">
          <path
             id="path11628"
             inkscape:connector-curvature="0"
             d="m -1380.549,-396.694 c -11.948,0 -14.193,17.022 -7.469,17.022 6.721,0.001 19.421,-17.022 7.469,-17.022 z"
             style="fill:#2e3436" />
          <path
             id="path11630"
             inkscape:connector-curvature="0"
             d="m -1400.394,-381.782 c 3.582,0.22 7.508,-13.66 0.78,-12.788 -6.726,0.873 -4.361,12.571 -0.78,12.788 z"
             style="fill:#2e3436" />
          <path
             id="path11632"
             inkscape:connector-curvature="0"
             d="m -1416.799,-373.157 c 2.545,-1.122 0.327,-12.084 -4.003,-9.092 -4.327,2.991 1.458,10.212 4.003,9.092 z"
             style="fill:#2e3436" />
          <path
             id="path11634"
             inkscape:connector-curvature="0"
             d="m -1409.627,-378.894 c 3.032,-0.619 3.197,-13.05 -2.206,-10.82 -5.406,2.23 -0.821,11.438 2.206,10.82 z"
             style="fill:#2e3436" />
          <path
             id="path11636"
             inkscape:connector-curvature="0"
             d="m -1393.798,-351.072 c 0.537,4.105 -3.014,6.134 -6.491,3.487 -11.07,-8.428 18.329,-12.634 16.39,-24.147 -1.606,-9.558 -30.933,-6.617 -34.273,8.34 -2.261,10.114 9.305,24.147 21.371,24.147 5.938,0 12.785,-5.361 14.067,-12.151 0.977,-5.179 -11.514,-3.102 -11.064,0.324 z"
             style="fill:#2e3436" />
        </g>
      </g>
    </clipPath>
  </defs>
  <sodipodi:namedview
     id="base"
     pagecolor="#ffffff"
     bordercolor="#666666"
     borderopacity="1.0"
     inkscape:pageopacity="0.0"
     inkscape:pageshadow="2"
     inkscape:zoom="1.0106159"
     inkscape:cx="1188.1084"
     inkscape:cy="407.42417"
     inkscape:document-units="cm"
     inkscape:current-layer="layer1"
     showgrid="false"
     units="cm"
     inkscape:window-width="2048"
     inkscape:window-height="1091"
     inkscape:window-x="0"
     inkscape:window-y="28"
     inkscape:window-maximized="1"
     showguides="false"
     inkscape:guide-bbox="true">
    <sodipodi:guide
       position="0,695.47616"
       orientation="1,0"
       id="guide4523"
       inkscape:locked="false"
       inkscape:label=""
       inkscape:color="rgb(0,0,255)" />
    <sodipodi:guide
       position="-1149.0476,0"
       orientation="0,1"
       id="guide4525"
       inkscape:locked="false"
       inkscape:label=""
       inkscape:color="rgb(0,0,255)" />
    <sodipodi:guide
       position="2000,1558.8345"
       orientation="1,0"
       id="guide4527"
       inkscape:locked="false"
       inkscape:label=""
       inkscape:color="rgb(0,0,255)" />
    <sodipodi:guide
       position="839.95192,999.99998"
       orientation="0,1"
       id="guide4529"
       inkscape:locked="false"
       inkscape:label=""
       inkscape:color="rgb(0,0,255)" />
    <sodipodi:guide
       position="-98.660416,499.99999"
       orientation="0,1"
       id="guide4758"
       inkscape:locked="false"
       inkscape:label=""
       inkscape:color="rgb(0,0,255)" />
    <inkscape:grid
       type="xygrid"
       id="grid4922" />
  </sodipodi:namedview>
  <metadata
     id="metadata5">
    <rdf:RDF>
      <cc:Work
         rdf:about="">
        <dc:format>image/svg+xml</dc:format>
        <dc:type
           rdf:resource="http://purl.org/dc/dcmitype/StillImage" />
        <dc:title></dc:title>
      </cc:Work>
    </rdf:RDF>
  </metadata>
  <g
     inkscape:label="Layer 1"
     inkscape:groupmode="layer"
     id="layer1"
     transform="translate(0,702.99998)">
    <rect
       style="opacity:1;vector-effect:none;fill:#4a86cf;fill-opacity:1;fill-rule:nonzero;stroke:none;stroke-width:0.52916664;stroke-linecap:butt;stroke-linejoin:miter;stroke-miterlimit:4;stroke-dasharray:none;stroke-dashoffset:0;stroke-opacity:1"
       id="rect4531"
       width="2000"
       height="1000"
       x="0"
       y="-703" />
    <g
       id="g5167"
       transform="matrix(1.25,0,0,1.25,-250.00001,-74.499994)">
      <path
         style="fill:#ffffff;fill-opacity:1;stroke-width:0.47036991"
         d="m 1395.1642,151.89484 c -1.6716,-0.0524 -3.4803,0.1712 -4.7788,0.66489 -0.9918,0.37712 -2.9822,1.89948 -4.4256,3.38677 -2.9431,3.03274 -2.3801,3.02361 -11.1367,0.0416 -5.938,-2.02206 -13.9625,-3.31191 -13.9625,-2.24396 0,1.12709 1.6078,1.95969 5.5268,2.82577 2.4657,0.54487 4.8879,1.65421 6.6488,3.05428 1.5232,1.21121 3.045,2.19905 3.3659,2.20241 0.3209,0 2.4151,0.88276 4.6542,1.95312 2.2389,1.07024 5.4937,2.54528 7.2306,3.28288 1.737,0.73745 3.1582,1.63203 3.1582,1.97381 0,0.91594 6.7884,5.44376 8.1655,5.44376 1.4087,0 4.4672,1.89022 4.4672,2.76343 0,0.33883 -1.8931,1.45945 -4.1971,2.49326 -4.3837,1.96682 -7.7707,5.22094 -7.7707,7.45912 0,1.56457 3.0163,4.52515 7.7707,7.62538 1.8958,1.23607 3.5779,2.48828 3.7608,2.78425 0.5815,0.94106 -0.4917,1.91399 -3.0336,2.74257 -1.5838,0.51623 -3.1909,1.78928 -4.4878,3.55303 -2.6106,3.54967 -2.6418,5.53288 -0.084,6.62798 5.0404,2.1574 47.2634,42.66072 61.2106,58.7172 1.3161,1.51536 2.9563,3.4818 4.7581,5.67239 h 22.9178 c -18.2023,-20.16215 -39.6977,-40.9517 -56.2449,-54.18775 -7.453,-5.96163 -10.0133,-8.43367 -9.5371,-9.20458 0.239,-0.38642 3.2985,-0.45079 7.8541,-0.16622 l 7.48,0.4571 2.0776,-2.22325 c 2.4049,-2.56599 2.698,-5.05927 0.7688,-6.71118 -0.7314,-0.62619 -1.3298,-1.84882 -1.3298,-2.72176 0,-2.01251 -0.9888,-2.79137 -4.3218,-3.38677 -1.4626,-0.26128 -3.6005,-1.17372 -4.7372,-2.03617 -1.4477,-1.09846 -3.1405,-1.64386 -5.6516,-1.78686 -3.533,-0.20134 -3.5961,-0.24246 -4.4464,-2.84661 -0.8314,-2.54676 -1.8489,-16.28952 -1.2049,-16.28952 0.1724,0 1.1532,0.30253 2.1608,0.68558 1.5145,0.57591 2.1446,0.46315 3.6983,-0.68558 1.4424,-1.06647 2.4194,-1.28931 4.1972,-0.95585 1.7614,0.33048 2.3271,0.19877 2.3271,-0.51947 0,-0.51932 0.4057,-1.50704 0.9141,-2.20242 0.8116,-1.10976 1.146,-1.15249 2.7634,-0.41557 1.5291,0.69673 2.01,0.67038 2.805,-0.12498 1.7335,-1.73351 0.3426,-3.53045 -4.675,-5.98392 -5.4077,-2.64421 -8.3467,-3.48812 -14.1079,-4.09319 -2.1942,-0.23036 -5.9988,-0.8486 -8.4357,-1.37129 -2.4367,-0.52255 -5.3538,-0.76595 -6.4825,-0.54015 -2.2583,0.45159 -2.5755,-0.22822 -1.2052,-2.47259 0.7072,-1.15826 0.6411,-1.4921 -0.4571,-2.30631 -0.7518,-0.55722 -2.2967,-0.88314 -3.9685,-0.93489 z m 25.9721,13.31846 c 0.6588,-0.0471 1.4105,-0.0215 2.2855,0.0619 2.0044,0.19152 2.2647,0.43114 2.2647,2.18158 0,1.63713 -0.3349,2.05621 -1.9947,2.45175 -1.097,0.26154 -2.6298,0.65749 -3.3866,0.89349 -1.8527,0.57765 -3.1135,-1.03972 -2.5558,-3.26204 0.3622,-1.44333 1.41,-2.18738 3.3869,-2.32715 z m -10.5136,1.28823 c 0.7658,-0.0604 2.1228,1.0896 2.9712,2.82578 1.6622,3.40141 1.0738,4.56559 -0.8933,1.76604 -0.8799,-1.25209 -1.8319,-2.37138 -2.1195,-2.49328 -0.2875,-0.12231 -0.5193,-0.66032 -0.5193,-1.20517 0,-0.57886 0.2128,-0.86608 0.5609,-0.89337 z m -6.6279,20.02949 c 0.2524,0 0.5383,0.0142 0.8725,0.0416 2.2487,0.22014 3.9764,2.34852 4.8828,6.02545 0.7558,3.06622 -1.6316,1.97744 -2.5973,-1.18421 -0.227,-0.74377 -1.3125,-1.88657 -2.4101,-2.53493 -2.2763,-1.34467 -2.5159,-2.3043 -0.7479,-2.34785 z m 10.9705,12.61206 c 1.2602,-0.0578 3.4499,0.23559 7.2099,0.85182 5.4432,0.89216 6.2309,1.20854 5.5266,2.34786 -0.4199,0.67966 -2.9307,0.76958 -8.6642,0.27015 -4.5902,-0.39984 -5.6515,-0.8224 -5.6515,-2.22327 0,-0.78853 0.3187,-1.18878 1.5792,-1.24656 z"
         id="path3253"
         inkscape:connector-curvature="0" />
      <path
         style="fill:#ffffff;fill-opacity:1;stroke-width:0.47036991"
         d="m 1323.2196,-17.506187 c -1.3463,0.03627 -2.0706,2.567731 -3.024,10.1378571 -0.4726,3.7526009 -1.3552,8.35824988 -1.9577,10.2346214 -0.9127,2.8420418 -1.4868,3.59429 -3.3728,4.5164046 -4.0135,1.9623982 -3.5995,6.7127939 0.7171,8.2575919 2.0466,0.732497 1.8598,0.769724 -3.2565,0.814204 l -5.4275,0.05778 v 2.015873 c 0,1.108817 0.489,2.992851 1.0855,4.187001 0.8581,1.717918 1.5385,2.235624 3.2565,2.481046 l 2.171,0.310187 -0.1173,34.425852 c -0.091,27.061894 -0.5693,46.101779 -2.2873,89.010879 -1.2021,30.0218 -2.4914,63.93585 -2.8688,75.36464 -0.3776,11.42892 -0.8119,21.12862 -0.9499,21.55507 -0.196,0.60615 -6.8184,0.77549 -30.3358,0.77549 h -30.0645 l -1.5895,2.30632 c -0.8652,1.27346 -1.5701,2.71357 -1.5701,3.19862 0,0.48492 1.1762,1.96373 2.5975,3.27589 l 2.5781,2.38399 h 74.5118 74.5311 l 2.9076,-1.86064 c 1.6019,-1.01607 2.9075,-2.13254 2.9075,-2.48118 0,-0.40818 -4.8062,-0.66758 -13.4912,-0.75586 l -13.4911,-0.13565 13.9176,-0.32956 c 9.1369,-0.21557 13.9845,-0.56743 14.1309,-1.00787 0.1226,-0.36893 -0.3339,-1.37223 -1.008,-2.22918 l -1.2212,-1.55071 -31.1111,-0.36839 c -17.1045,-0.1965 -31.2471,-0.50415 -31.4408,-0.69794 -0.1936,-0.19355 -0.733,-11.31951 -1.1824,-24.71445 -0.4493,-13.39492 -1.3846,-38.02363 -2.074,-54.74027 -2.6752,-64.85247 -3.1118,-79.191297 -3.4309,-109.441562 -0.3554,-33.674688 -0.4932,-32.27396 2.8686,-32.293587 0.8965,0 1.9148,-0.348906 2.2485,-0.775359 0.8551,-1.092675 2.1241,-6.618981 1.6866,-7.32714 -0.2002,-0.323626 -1.885,-0.581404 -3.7411,-0.581404 -3.5679,0 -3.885,-0.248248 -2.5007,-1.822078 0.4738,-0.538684 1.0416,-1.819394 1.2601,-2.84958 0.5762,-2.7182546 -0.709,-4.0856489 -4.1868,-4.4775596 -2.5312,-0.2853331 -2.9077,-0.5166395 -2.9077,-1.7639984 0,-1.936727 -1.2408,-2.5678731 -2.2681,-1.1629855 -1.2279,1.6794828 -1.0214,0.6986126 0.5235,-2.481171 1.2935,-2.66248636 1.3277,-2.89217503 0.3684,-4.9041554 -0.5549,-1.1632344 -0.8765,-2.6894908 -0.698,-3.372779 0.1787,-0.683306 -0.1422,-1.9529937 -0.7171,-2.8300951 -0.7376,-1.125741 -0.9844,-2.544336 -0.8335,-4.845951 0.1778,-2.710202 0.028,-3.309882 -0.8725,-3.489046 -0.096,-0.01884 -0.1815,-0.02151 -0.2711,-0.01884 z m -1.1245,276.550407 c -34.2655,0 -68.527,0.21194 -69.1423,0.60076 -0.7268,0.45952 -0.4368,0.77374 1.3762,1.53136 1.2629,0.52766 2.4677,0.96931 2.6752,0.96931 0.888,0 8.854,5.02229 11.1262,7.01694 2.2069,1.93724 2.3783,2.28992 1.5507,3.12078 -0.018,0.0142 -0.029,0.0283 -0.039,0.0389 l 105.4485,-1.06606 c 0.2025,-0.22418 0.3758,-0.41879 0.659,-0.7173 2.664,-2.80897 9.2931,-7.28319 13.3749,-9.03295 2.3312,-0.99913 2.8117,-1.43809 2.1129,-1.88014 -0.6151,-0.38896 -34.8768,-0.58329 -69.1425,-0.58154 z"
         id="path3249"
         inkscape:connector-curvature="0" />
      <path
         style="fill:#ffffff;fill-opacity:1;stroke-width:0.47036991"
         d="M 499.99999,280.15478 V 262.1613 h 30.91387 30.91393 l 1.98254,-1.37385 c 1.96233,-1.35987 2.02067,-1.36592 5.70817,-0.59298 2.46318,0.51623 4.16907,0.61232 5.03429,0.28345 0.71973,-0.27377 2.38816,-0.49754 3.70757,-0.49754 1.84094,0 2.53472,-0.25376 2.98259,-1.09054 0.321,-0.59983 1.12704,-1.09389 1.79127,-1.09805 0.66416,0 1.7597,-0.15538 2.43445,-0.33614 l 1.22683,-0.32889 v -47.93608 c 0,-42.10673 0.0994,-47.97414 0.81787,-48.24978 1.21676,-0.46692 0.9891,-1.66094 -0.38511,-2.02032 -1.65104,-0.4317 -0.83637,-1.07065 2.19918,-1.72491 l 2.54798,-0.54903 v -2.99512 c 0,-2.8419 -0.0747,-3.00359 -1.45953,-3.16366 -1.84139,-0.21277 -3.05534,-1.5323 -2.19831,-2.38939 0.33194,-0.33196 1.52823,-0.75384 2.65855,-0.93758 1.52845,-0.24837 2.37382,-0.80707 3.29922,-2.18024 1.19275,-1.76992 1.24434,-2.29974 1.24645,-12.80707 0,-12.61634 0.53872,-24.86483 1.08845,-24.86483 0.42149,0 0.89968,8.38124 1.43107,25.08176 0.38948,12.23922 0.7843,13.94368 3.34966,14.4614 4.83669,0.97615 5.64405,2.28064 2.03479,3.28772 -1.91909,0.53545 -2.20223,0.82496 -2.35752,2.41022 -0.33997,3.47089 0.16124,4.19841 3.16792,4.59731 2.86096,0.37954 3.52731,1.09025 1.59662,1.70298 l -1.13713,0.361 1.0952,1.17521 c 1.07219,1.1506 1.10464,2.18173 1.54607,49.15767 l 0.45088,47.9826 3.09389,0.16231 c 2.86885,0.1504 3.1068,0.0713 3.27151,-1.09052 0.17742,-1.25168 0.18779,-1.25303 11.90063,-1.55287 6.44764,-0.16498 11.77713,-0.34905 11.84331,-0.40898 0.0663,-0.0605 0.75208,-1.44414 1.52415,-3.07618 3.00888,-6.36026 8.62513,-10.71335 14.98578,-11.61559 l 2.9988,-0.42539 0.27271,-11.17099 0.27271,-11.17086 2.18098,-0.27256 2.18098,-0.27271 0.27271,-2.99888 0.27271,-2.9989 3.52302,-0.16533 c 1.93795,-0.0914 3.82737,-0.41758 4.19893,-0.7259 0.37137,-0.30845 0.74897,-1.82892 0.83875,-3.37883 l 0.16356,-2.81825 h 6.27039 6.27057 l 0.16889,2.98705 c 0.18613,3.28665 0.62436,3.80786 3.21155,3.82021 1.74062,0.0142 1.74525,0.016 1.90827,3.14365 l 0.16355,3.13516 7.36106,0.27271 7.36089,0.27257 0.27271,12.8135 0.27253,12.81365 2.24426,0.16409 c 1.57636,0.11556 3.68551,-0.40574 7.08817,-1.75123 12.56355,-4.96732 27.97651,-7.2567 43.35641,-6.43943 9.05439,0.48116 9.52603,0.45549 10.94897,-0.59672 1.45102,-1.0728 1.53937,-1.07575 3.65759,-0.12089 2.1904,0.98784 2.70418,0.96001 5.8864,-0.31867 1.58062,-0.63518 1.87626,-0.5907 2.99893,0.45104 1.1328,1.05129 1.64,1.12306 5.60746,0.79419 l 4.36213,-0.36167 0.27253,-40.06882 c 0.26898,-39.54517 0.28693,-40.07095 1.3632,-40.23385 3.77351,-0.5708 3.4976,0.0242 3.66471,-7.89873 l 0.15111,-7.21828 3.13511,-0.16338 3.13528,-0.16356 v 7.00645 c 0,4.72245 0.21334,7.21989 0.6544,7.66086 0.73547,0.73544 10.62879,0.91714 11.73297,0.21544 0.45262,-0.28761 0.71342,-2.67485 0.81795,-7.48896 l 0.15289,-7.0668 1.49956,-0.17244 1.49955,-0.17263 v 7.38681 c 0,8.38635 -0.3808,7.79229 5.17973,8.08287 l 2.7264,0.1424 0.27253,12.81352 0.27271,12.81349 6.67928,0.15307 c 3.67378,0.0846 6.7328,0.0846 6.79804,0 0.064,-0.0846 0.24924,-8.7409 0.40907,-19.23692 l 0.29013,-19.084 1.90844,-0.27255 1.90845,-0.27271 0.15466,-5.89644 0.15467,-5.89642 1.61689,-0.56368 1.61706,-0.56368 v -12.45521 c 0,-9.36922 0.16889,-12.56299 0.68142,-12.88959 0.37494,-0.23882 1.78578,-0.48142 3.13529,-0.53921 1.34951,-0.0578 2.63768,-0.12232 2.86257,-0.14312 0.22489,-0.0215 0.45849,-1.93994 0.51858,-4.26399 l 0.11022,-4.225845 0.18596,4.225845 c 0.10133,2.32405 0.35946,4.22945 0.57191,4.23402 0.21209,0 0.75395,0.24059 1.20373,0.5243 0.66293,0.41826 0.86969,2.45833 1.09049,10.76054 l 0.27271,10.2443 6.40675,0.1536 6.40675,0.1536 v 1.85889 c 0,1.02253 0.30667,2.0574 0.68142,2.30014 0.37493,0.2426 3.50329,0.56381 6.95217,0.71367 l 6.2704,0.2727 0.15466,5.61338 c 0.10489,3.79347 0.37031,5.68744 0.81796,5.842 0.36426,0.12498 4.09475,0.49244 8.2903,0.81515 4.19555,0.3227 7.85333,0.81191 8.1287,1.08703 0.2752,0.27526 0.49156,5.75881 0.48089,12.18572 -0.0178,6.42693 0.17067,11.99368 0.40409,12.37067 0.23307,0.377 0.80729,0.53813 1.27644,0.35804 0.67769,-0.25992 0.88498,-1.42519 1.00925,-5.66822 l 0.15644,-5.3411 2.40995,-0.17209 c 3.97582,-0.28412 4.8608,0.15218 5.0544,2.49166 l 0.16889,2.04263 3.13155,0.16338 c 3.41493,0.17822 3.4848,0.26034 3.8096,4.47125 l 0.14755,1.90849 3.27164,0.27257 3.27147,0.2727 0.27271,11.95079 c 0.29173,12.79375 0.49315,13.57663 2.85013,11.08686 0.6816,-0.71984 1.66844,-1.46685 2.19342,-1.65998 0.5248,-0.19314 0.95413,-0.72697 0.95413,-1.18623 0,-0.45925 0.25494,-0.83489 0.56676,-0.83489 0.31146,0 1.83484,-1.28823 3.38506,-2.86261 l 2.81849,-2.8626 5.84852,0.0283 5.84835,0.0283 3.76818,3.78915 c 7.22577,7.26639 6.65617,6.90781 11.40514,7.18131 2.34009,0.13475 4.5616,0.49945 4.93635,0.81045 0.52178,0.43291 0.68178,5.07699 0.68178,19.7971 0,21.61006 -0.37653,19.89335 4.36195,19.89335 4.74293,0 4.36195,1.78768 4.36195,-20.47328 0,-15.25289 0.15645,-19.91162 0.6816,-20.2475 0.37494,-0.23991 2.69156,-0.57456 5.14809,-0.74377 l 4.46666,-0.30752 2.75484,-2.69621 c 8.98685,-8.79601 7.82825,-7.99416 11.98145,-8.29131 5.2736,-0.37741 8.8248,0.22215 9.1716,1.54828 0.1511,0.57632 0.4823,1.04779 0.7369,1.04779 0.2546,0 1.216,0.73612 2.1363,1.6358 0.9202,0.89968 1.8937,1.63578 2.1631,1.63578 0.2693,0 0.6453,0.49071 0.8359,1.09054 0.1902,0.5997 0.6769,1.09039 1.0817,1.09039 0.4045,0 1.186,0.61864 1.7369,1.37466 0.8498,1.16674 1.631,1.44507 5.17,1.84196 2.2928,0.25712 4.4476,0.63989 4.7884,0.85048 0.4496,0.27796 0.6032,7.31424 0.56,25.65056 -0.053,22.62639 0.036,25.4113 0.84,26.64081 0.5005,0.76366 1.2295,1.24643 1.643,1.08771 0.9812,-0.37646 1.2406,-1.92087 1.6352,-9.73615 0.1817,-3.59884 0.6966,-8.13811 1.1439,-10.08731 1.2177,-5.30615 1.1601,-5.20523 2.3552,-4.12382 0.9765,0.88382 1.0481,0.87319 1.3911,-0.20699 0.1987,-0.62643 0.4494,-3.21635 0.5566,-5.75558 0.1084,-2.5391 0.3831,-4.92082 0.6131,-5.29283 0.2297,-0.3719 0.4308,-4.60875 0.4468,-9.41507 0.029,-8.36577 0.075,-8.73902 1.1196,-8.73902 1.0299,0 1.1133,0.50025 1.5007,8.99681 0.7326,16.07784 1.3187,22.35543 2.0869,22.35543 0.2761,0 0.5019,-0.4907 0.5019,-1.09052 0,-0.59984 0.312,-1.09053 0.6931,-1.09053 1.0311,0 2.0761,5.68288 2.7785,15.10907 0.6252,8.39374 1.1684,10.24579 2.5252,8.61095 1.3223,-1.59307 3.5498,-19.45198 2.6389,-21.157 -0.8734,-1.63498 -0.3445,-3.92611 0.9063,-3.92611 0.9879,0 1.0748,0.30791 0.9237,3.27145 -0.1987,3.90341 0.9223,16.12569 1.5511,16.91004 0.2436,0.30376 0.5225,1.53056 0.6198,2.72633 0.1209,1.49036 0.4341,2.17406 0.9948,2.17406 0.6261,0 0.9275,-1.08649 1.2859,-4.63468 0.2574,-2.54905 0.449,-5.7334 0.4258,-7.07647 -0.023,-1.34293 0.3184,-3.99573 0.7589,-5.89536 0.4405,-1.89948 0.8009,-4.05178 0.8009,-4.78305 0,-0.8181 0.3145,-1.32923 0.8179,-1.32923 0.5088,0 0.8178,0.51503 0.8178,1.3631 0,0.74981 0.2245,1.36321 0.4989,1.36321 0.4471,0 0.8272,-2.77455 1.4732,-10.75462 0.1778,-2.19086 0.7676,-17.95435 0.7573,-20.22652 0,-0.43492 0.4822,-0.65063 1.2239,-0.54526 1.2129,0.17226 1.2268,0.27136 1.2415,8.89826 0.018,4.79826 0.2061,9.03 0.44,9.40391 0.2338,0.3739 0.5183,2.95023 0.632,5.7252 0.1138,2.77498 0.4523,5.65882 0.7522,6.40851 0.4989,1.24684 0.5483,1.26405 0.5801,0.20308 0.044,-1.47613 1.541,-2.86866 1.8964,-1.76388 0.7182,2.2328 1.9667,11.35796 2.2896,16.73305 0.4,6.65848 1.032,8.20289 2.9388,7.18225 1.3691,-0.73262 1.6338,-0.68826 1.6338,0.27378 0,0.44983 0.2439,0.81781 0.5418,0.81781 0.3536,0 0.5906,-15.03556 0.6818,-43.21162 l 0.1405,-43.21137 2.4535,-0.14382 c 4.1363,-0.24246 4.8194,-0.5391 5.0076,-2.17488 l 0.1725,-1.49817 13.2035,-0.14595 13.2036,-0.14596 0.9605,1.50917 c 1.2578,1.97637 1.7733,2.30862 3.5987,2.31856 1.3296,0.0142 1.727,0.44043 3.1348,3.41621 l 1.6121,3.40786 v 44.30189 c 2e-4,38.20964 0.1084,44.30216 0.7861,44.30216 0.432,0 0.9307,-0.23464 1.1079,-0.52147 0.1778,-0.28681 0.6916,-0.37968 1.1429,-0.20644 0.4514,0.17316 1.2944,-0.11289 1.8731,-0.63733 0.5908,-0.53477 1.5229,-0.82924 2.1255,-0.67159 1.5565,0.40697 1.7607,-0.65628 1.3492,-7.02124 -0.4153,-6.42477 -0.073,-7.29958 2.862,-7.29958 2.5143,0 5.2631,-1.58055 7.8398,-4.5078 1.1862,-1.34765 3.2656,-2.97148 4.6212,-3.60867 2.1011,-0.98758 2.4649,-1.39508 2.4649,-2.76114 0,-0.90546 0.569,-2.26437 1.3086,-3.12387 l 1.3084,-1.52142 1.127,1.35463 c 0.6199,0.74497 1.1351,2.12327 1.1452,3.06271 0.018,1.52573 0.3426,1.86685 3.0567,3.19472 1.9127,0.93584 3.6242,2.29516 4.6192,3.66874 1.8617,2.57015 4.7097,4.2421 7.2256,4.2421 2.8612,0 3.1099,0.62469 3.1099,7.80627 0,6.44653 0.018,6.49507 1.2122,6.18056 0.7746,-0.20254 1.6111,0.0484 2.3174,0.69539 0.6078,0.55682 1.8983,1.18018 2.8677,1.38514 l 1.7628,0.37282 0.1458,-44.616 0.1458,-44.61585 1.4693,-3.13516 c 1.2731,-2.71692 1.6735,-3.13639 2.9988,-3.14364 1.8327,-0.0142 2.3472,-0.34083 3.6058,-2.31856 l 0.9606,-1.50917 13.2035,0.14596 13.2036,0.14595 0.1913,1.36324 c 0.2547,1.81548 0.9288,2.16264 4.2181,2.17258 l 2.7735,0.0142 0.3616,25.44396 c 0.1989,13.9941 0.3618,36.44496 0.3618,49.89096 0,24.0833 0.018,24.44686 1.0903,24.44686 1.144,0 1.2195,-5.66352 1.349,-101.23184 0.018,-5.74577 0.1909,-10.62518 0.4065,-10.84319 0.2159,-0.21786 1.688,-0.68665 3.2717,-1.0416 2.771,-0.62121 2.8855,-0.71905 3.0457,-2.60698 l 0.1671,-1.96171 -2.8928,-0.57013 c -1.5911,-0.31342 -3.8743,-0.73477 -5.074,-0.93625 -3.9758,-0.66728 -6.2704,-1.84492 -6.2704,-3.21807 0,-1.71147 2.7309,-2.72418 9.5529,-3.54242 2.9929,-0.35898 6.7886,-0.8142 8.4352,-1.0115 l 2.9934,-0.35872 0.5508,-3.64252 c 0.5648,-3.73635 1.3685,-5.52913 1.3685,-3.05292 0,2.14865 1.1221,2.68144 5.2672,2.50106 l 3.7294,-0.16231 0.2727,-2.18104 c 0.1494,-1.19954 0.5179,-2.18107 0.8178,-2.18107 0.2999,0 0.6681,0.98153 0.818,2.18107 l 0.2725,2.18104 4.0414,0.16196 c 4.4285,0.1776 4.9328,-0.11431 4.947,-2.861 0.018,-2.03644 0.9463,-1.20275 1.1933,1.06326 l 0.1783,1.63578 h 4.3619 c 4.3533,0 4.3623,0 4.5346,-1.4995 0.096,-0.82467 0.3853,-1.49938 0.6453,-1.49938 0.2601,0 0.5506,0.67471 0.6454,1.49938 l 0.1724,1.4995 5.0189,-0.0142 h 5.0188 l 0.1618,8.63674 c 0.089,4.75013 -0.035,8.98577 -0.2749,9.41249 -0.2423,0.43143 -1.2519,0.77603 -2.2727,0.77603 -3.8581,0 -3.5617,-2.56519 -3.5617,30.83304 0,29.19227 0.214,33.15711 1.5941,29.52706 0.3257,-0.85679 1.0853,-1.43592 2.1674,-1.65231 l 1.6656,-0.33318 0.1494,-9.69448 0.1493,-9.69433 2.3376,-0.16871 c 2.1045,-0.15183 2.3698,-0.33049 2.6619,-1.79156 l 0.3246,-1.62302 4.9483,0.15591 c 4.7712,0.15022 4.9596,0.20443 5.268,1.51605 0.1849,0.78665 0.7698,1.428 1.3865,1.52075 0.5867,0.0887 1.6187,0.27806 2.2935,0.42215 l 1.2267,0.26181 v 29.12844 c 0,27.85713 0.1529,30.85709 1.5108,29.50006 0.1911,-0.19125 0.3587,-1.01326 0.3726,-1.82665 l 0.025,-1.47909 9.7584,-0.27269 9.7584,-0.27257 0.7662,-2.6309 c 1.0421,-3.57761 5.4331,-8.05411 9.1609,-9.33898 4.4721,-1.54131 4.336,-1.36255 4.6346,-6.08015 0.2118,-3.34256 0.4557,-4.30567 1.0905,-4.30567 0.6637,0 0.7826,0.68235 0.6302,3.62048 -0.2019,3.89628 0.4731,5.91836 1.9789,5.92696 3.4137,0.0201 9.5026,4.86933 10.9511,8.72275 1.811,4.81745 0.6242,4.31333 10.5495,4.48092 8.4346,0.1424 8.8821,0.20443 8.9566,1.24039 0.043,0.5997 0.1049,1.40233 0.1369,1.7835 0.046,0.54082 2.4258,0.66071 10.8268,0.54526 l 10.7687,-0.14791 0.1067,-5.14527 c 0.085,-4.09346 0.318,-5.43114 1.1443,-6.54318 1.4605,-1.96533 3.869,-2.11305 5.5352,-0.33948 1.1436,1.21713 1.2952,1.88657 1.2714,5.60492 -0.037,5.88943 0.3129,6.59517 3.3805,6.80107 l 2.4908,0.16711 0.1244,8.83404 c 0.075,5.38396 0.3524,9.06172 0.7081,9.41693 0.3823,0.38169 8.7822,0.73451 24.3426,1.02253 l 23.7587,0.43975 3.8048,2.82055 c 2.0926,1.55137 4.0432,2.82067 4.3344,2.82067 0.7737,0 1.4868,-56.87255 0.731,-58.28498 -1.0741,-2.007 -0.686,-3.26849 1.255,-4.0796 l 1.8313,-0.76514 0.2677,-7.88543 c 0.2688,-7.91715 0.8265,-10.75329 1.5811,-8.04161 0.2079,0.74674 0.4024,4.72446 0.4322,8.83928 l 0.055,7.48168 1.7721,0.45684 c 2.048,0.52778 2.5831,2.18481 1.4117,4.37233 -0.5852,1.09282 -0.7301,7.43814 -0.7301,31.95259 v 30.58858 l 1.3632,-0.17917 c 6.1733,-0.81137 7.4971,-0.72615 10.2292,0.65821 4.6115,2.33692 4.4926,2.0254 4.4926,11.78356 0,4.75242 -0.1494,9.45979 -0.3311,9.93425 -0.3013,0.78556 -44.87,-0.39271 -499.99859,0 H 500.00058 v -17.56215 z"
         id="path3251"
         inkscape:connector-curvature="0"
         sodipodi:nodetypes="cccccccsccccsscccscccccsscssscccsccsscssccccccccsscccscscccccccsccccccscscccsscccccsscccccscccccccscccccccsscccscscscscccsscsscsccccsscssscccsccssscccsscssscssscsccccccccssssssscsssccscccssssscccscsccscssscsccccccscssscccsscssccccscsscsccccsccccccccsssccccccssscccsscssscscccscsccccscsscccccsccsccccscccccscssscccccccssccscccsccscccscccssscscscsccc" />
    </g>
    <g
       id="g7232"
       transform="matrix(2.8952066,0,0,2.8952066,-65.197797,-868.03951)"
       inkscape:export-xdpi="90"
       inkscape:export-ydpi="90">
      <path
         inkscape:export-ydpi="90"
         inkscape:export-xdpi="90"
         inkscape:export-filename="/home/andreasn/SparkleShare/gnome-marketing/guadec/sponsor-2014.png"
         inkscape:connector-curvature="0"
         d="m 301.82534,161.99996 c -18.13111,0 -21.53226,25.82442 -11.3325,25.82442 10.1983,0 29.46434,-25.82442 11.3325,-25.82442 z"
         style="fill:#ffffff;fill-opacity:1;fill-rule:nonzero;stroke:none"
         id="path15047-7" />
      <path
         inkscape:export-ydpi="90"
         inkscape:export-xdpi="90"
         inkscape:export-filename="/home/andreasn/SparkleShare/gnome-marketing/guadec/sponsor-2014.png"
         inkscape:connector-curvature="0"
         d="m 271.71909,184.62441 c 5.43079,0.33165 11.38925,-20.72525 1.18213,-19.40089 -10.20345,1.32432 -6.61513,19.06927 -1.18213,19.40089 z"
         style="fill:#ffffff;fill-opacity:1;fill-rule:nonzero;stroke:none"
         id="path15049-2" />
      <path
         inkscape:export-ydpi="90"
         inkscape:export-xdpi="90"
         inkscape:export-filename="/home/andreasn/SparkleShare/gnome-marketing/guadec/sponsor-2014.png"
         inkscape:connector-curvature="0"
         d="m 246.82991,197.7087 c 3.86251,-1.70019 0.49746,-18.33007 -6.07047,-13.79473 -6.56498,4.53611 2.20799,15.49422 6.07047,13.79473 z"
         style="fill:#ffffff;fill-opacity:1;fill-rule:nonzero;stroke:none"
         id="path15051-0" />
      <path
         inkscape:export-ydpi="90"
         inkscape:export-xdpi="90"
         inkscape:export-filename="/home/andreasn/SparkleShare/gnome-marketing/guadec/sponsor-2014.png"
         inkscape:connector-curvature="0"
         d="m 257.71287,189.00427 c 4.598,-0.93744 4.85005,-19.79815 -3.34957,-16.41468 -8.20107,3.38421 -1.24476,17.35358 3.34957,16.41468 z"
         style="fill:#ffffff;fill-opacity:1;fill-rule:nonzero;stroke:none"
         id="path15053-9" />
      <path
         inkscape:export-ydpi="90"
         inkscape:export-xdpi="90"
         inkscape:export-filename="/home/andreasn/SparkleShare/gnome-marketing/guadec/sponsor-2014.png"
         inkscape:connector-curvature="0"
         d="m 281.72284,231.21168 c 0.81582,6.2304 -4.57074,9.30727 -9.84602,5.29077 -16.7935,-12.78583 27.8054,-19.16436 24.8656,-36.63218 -2.44014,-14.4993 -46.92775,-10.03541 -51.99373,12.65168 -3.42915,15.34457 14.11534,36.63291 32.42184,36.63291 9.00586,0 19.39353,-8.13181 21.33695,-18.43328 1.48427,-7.85542 -17.46561,-4.7078 -16.78464,0.4901 z"
         style="fill:#ffffff;fill-opacity:1;fill-rule:nonzero;stroke:none"
         id="path15055-1" />
      <path
         inkscape:export-ydpi="90"
         inkscape:export-xdpi="90"
         inkscape:export-filename="/home/andreasn/SparkleShare/gnome-marketing/guadec/sponsor-2014.png"
         id="path15059-8"
         style="font-style:normal;font-variant:normal;font-weight:bold;font-stretch:normal;font-size:148.699646px;line-height:125%;font-family:'Bitstream Vera Sans';text-align:start;writing-mode:lr-tb;text-anchor:start;fill:#ffffff;fill-opacity:1;stroke:none"
         d="m 394.44212,192.52036 c -4.56579,0.12298 -8.17147,1.76395 -10.82308,4.91102 -2.74597,3.27506 -4.12712,7.80028 -4.12712,13.57134 0,5.75512 1.38123,10.26795 4.12712,13.54297 2.75936,3.27508 6.5479,4.91098 11.38029,4.91098 4.84571,0 8.64375,-1.6359 11.38971,-4.91098 2.74589,-3.27502 4.11769,-7.78785 4.11768,-13.54297 -2e-5,-5.77106 -1.37179,-10.29628 -4.11768,-13.57134 -2.74596,-3.275 -6.54405,-4.91096 -11.38971,-4.91102 -0.18865,0 -0.37161,-0.004 -0.55721,0 z m 0.34,6.64874 c 0.0729,-0.002 0.14318,0 0.21721,0 2.38245,4e-5 4.22855,1.03097 5.5343,3.0977 1.30565,2.0668 1.96437,4.98393 1.96439,8.73592 0,3.73606 -0.65878,6.6314 -1.96439,8.69809 -1.30569,2.06684 -3.1519,3.10714 -5.5343,3.10714 -2.36911,0 -4.20027,-1.0403 -5.50596,-3.10714 -1.30569,-2.06669 -1.96437,-4.96203 -1.96441,-8.69809 0,-3.75197 0.65878,-6.66912 1.96441,-8.73592 1.26482,-2.00213 3.02585,-3.03508 5.28875,-3.0977 z"
         inkscape:connector-curvature="0" />
      <path
         inkscape:export-ydpi="90"
         inkscape:export-xdpi="90"
         inkscape:export-filename="/home/andreasn/SparkleShare/gnome-marketing/guadec/sponsor-2014.png"
         id="path15061-7"
         style="font-style:normal;font-variant:normal;font-weight:bold;font-stretch:normal;font-size:148.699646px;line-height:125%;font-family:'Bitstream Vera Sans';text-align:start;writing-mode:lr-tb;text-anchor:start;fill:#ffffff;fill-opacity:1;stroke:none"
         d="m 342.86404,226.11817 c -4.02177,3.37747 -10.00534,3.33863 -12.49809,3.33863 -5.02078,0 -8.99834,-1.6534 -11.9327,-4.96024 -2.93442,-3.32274 -4.40156,-7.82191 -4.40156,-13.49759 0,-5.73925 1.49409,-10.2543 4.48232,-13.54525 2.98824,-3.29091 7.08019,-4.93637 12.27597,-4.93639 2.00558,2e-5 3.9237,0.22259 5.75433,0.66772 1.84409,0.44516 3.58051,1.10494 5.20922,1.97931 l -2.09161,6.18357 c -0.91567,-0.50126 -1.96401,-0.99527 -2.93588,-1.34257 -1.65566,-0.55639 -3.318,-0.83463 -4.98708,-0.83465 -3.09595,2e-5 -5.4852,1.02548 -7.16773,3.07631 -1.66912,2.03498 -2.50365,4.9523 -2.50365,8.75195 0,3.7679 0.8076,6.67729 2.42291,8.72815 1.6152,2.05085 4.04266,3.07626 6.88501,3.07626 2.88757,0 4.6761,-0.72785 5.62996,-1.49477 v -6.1602 h -6.25585 v -6.1526 h 12.11443"
         inkscape:connector-curvature="0" />
      <path
         inkscape:export-ydpi="90"
         inkscape:export-xdpi="90"
         inkscape:export-filename="/home/andreasn/SparkleShare/gnome-marketing/guadec/sponsor-2014.png"
         id="path15063-3"
         style="font-style:normal;font-variant:normal;font-weight:bold;font-stretch:normal;font-size:148.699646px;line-height:125%;font-family:'Bitstream Vera Sans';text-align:start;writing-mode:lr-tb;text-anchor:start;fill:#ffffff;fill-opacity:1;stroke:none"
         d="m 348.17742,193.16119 h 4.90431 l 15.49682,21.39746 v -21.39746 h 6.61406 v 35.60402 h -4.90431 l -15.49678,-21.39747 v 21.39747 h -6.6141 v -35.60402"
         inkscape:connector-curvature="0" />
      <path
         inkscape:export-ydpi="90"
         inkscape:export-xdpi="90"
         inkscape:export-filename="/home/andreasn/SparkleShare/gnome-marketing/guadec/sponsor-2014.png"
         id="path15065-5"
         style="font-style:normal;font-variant:normal;font-weight:bold;font-stretch:normal;font-size:148.699646px;line-height:125%;font-family:'Bitstream Vera Sans';text-align:start;writing-mode:lr-tb;text-anchor:start;fill:#ffffff;fill-opacity:1;stroke:none"
         d="m 415.60926,193.16119 h 9.89333 l 6.865,22.22727 6.90519,-22.22727 h 8.36227 l 3.77769,35.60402 h -7.34956 l -2.26652,-22.26355 -6.94559,22.37033 h -4.92658 l -6.94558,-23.12588 -2.26674,23.0191 h -7.3696 l 3.77764,-35.60402"
         inkscape:connector-curvature="0" />
      <path
         inkscape:export-ydpi="90"
         inkscape:export-xdpi="90"
         inkscape:export-filename="/home/andreasn/SparkleShare/gnome-marketing/guadec/sponsor-2014.png"
         id="path15067-8"
         style="font-style:normal;font-variant:normal;font-weight:bold;font-stretch:normal;font-size:148.699646px;line-height:125%;font-family:'Bitstream Vera Sans';text-align:start;writing-mode:lr-tb;text-anchor:start;fill:#ffffff;fill-opacity:1;stroke:none"
         d="m 456.71765,193.16119 h 20.97804 v 6.93958 h -13.20484 v 7.38506 h 10.15088 v 6.18403 h -10.15088 v 8.1558 h 13.649 v 6.93955 h -21.4222 v -35.60402"
         inkscape:connector-curvature="0" />
      <path
         inkscape:export-ydpi="90"
         inkscape:export-xdpi="90"
         inkscape:export-filename="/home/andreasn/SparkleShare/gnome-marketing/guadec/sponsor-2014.png"
         d="m 484.57223,186.15274 h 5.71976 v 0.76989 h -2.40011 v 5.99149 h -0.91932 v -5.99149 h -2.40033 v -0.76989"
         style="font-style:normal;font-weight:normal;font-size:30.68958855px;font-family:'Bitstream Vera Sans';letter-spacing:0.2523815;fill:#eeeeec;fill-opacity:1;stroke:none"
         id="path9048"
         inkscape:connector-curvature="0" />
      <path
         inkscape:export-ydpi="90"
         inkscape:export-xdpi="90"
         inkscape:export-filename="/home/andreasn/SparkleShare/gnome-marketing/guadec/sponsor-2014.png"
         d="m 491.25598,186.15274 h 1.36304 l 1.72556,4.60118 1.73452,-4.60118 h 1.36304 v 6.76138 h -0.89215 v -5.93713 l -1.74352,4.6374 h -0.91931 l -1.74349,-4.6374 v 5.93713 h -0.88769 v -6.76138"
         style="font-style:normal;font-weight:normal;font-size:30.68958855px;font-family:'Bitstream Vera Sans';letter-spacing:0.2523815;fill:#ffffff;fill-opacity:1;stroke:none"
         id="path9050"
         inkscape:connector-curvature="0" />
    </g>
    <g
       transform="matrix(2.5001531,0,0,2.5001534,-367.36118,-2302.0689)"
       id="g7092"
       style="display:inline;opacity:0.722;fill:#ffffff;fill-opacity:1;stroke-width:1.41913307;enable-background:new">
      <path
         style="opacity:0.2;fill:#ffffff;fill-opacity:1;stroke-width:1.41913307"
         id="path7094"
         inkscape:connector-curvature="0"
         sodipodi:nodetypes="cccc"
         enable-background="new    "
         d="m 266.4638,669.58833 -29.99999,30 h 29.99999 z" />
      <path
         style="opacity:0.1;fill:#ffffff;fill-opacity:1;stroke-width:1.41913307"
         id="path7096"
         inkscape:connector-curvature="0"
         sodipodi:nodetypes="cccc"
         enable-background="new    "
         d="m 206.46381,699.59002 -30,29.99831 h 30 z" />
      <path
         style="opacity:0.1;fill:#ffffff;fill-opacity:1;stroke-width:1.41913307"
         id="path7098"
         inkscape:connector-curvature="0"
         sodipodi:nodetypes="cccc"
         enable-background="new    "
         d="m 206.46381,729.58833 29.99856,30.00335 v -30.00335 z" />
      <path
         style="opacity:0.4;fill:#ffffff;fill-opacity:1;stroke-width:1.41913307"
         id="path7100"
         inkscape:connector-curvature="0"
         sodipodi:nodetypes="cccc"
         enable-background="new    "
         d="m 206.46381,729.58733 30,-29.999 h -30 z" />
      <path
         style="opacity:0.7;fill:#ffffff;fill-opacity:1;stroke-width:1.41913307"
         id="path7102"
         inkscape:connector-curvature="0"
         sodipodi:nodetypes="cccc"
         enable-background="new    "
         d="m 176.46381,699.5927 -29.99266,-30.00437 h 29.99266 z" />
      <path
         style="opacity:0.7;fill:#ffffff;fill-opacity:1;stroke-width:1.41913307"
         id="path7104"
         inkscape:connector-curvature="0"
         sodipodi:nodetypes="cccc"
         enable-background="new    "
         d="m 206.46381,639.58833 -30,29.99656 v -29.99656 z" />
    </g>
    <rect
       style="opacity:1;vector-effect:none;fill:#ffffff;fill-opacity:1;fill-rule:nonzero;stroke:none;stroke-width:0.48576722;stroke-linecap:butt;stroke-linejoin:miter;stroke-miterlimit:4;stroke-dasharray:none;stroke-dashoffset:0;stroke-opacity:1"
       id="rect5139"
       width="388.33902"
       height="35"
       x="0"
       y="262" />
    <rect
       y="283.92776"
       x="1622.5493"
       height="13.072265"
       width="377.45071"
       id="rect5144"
       style="opacity:1;vector-effect:none;fill:#ffffff;fill-opacity:1;fill-rule:nonzero;stroke:none;stroke-width:0.2926808;stroke-linecap:butt;stroke-linejoin:miter;stroke-miterlimit:4;stroke-dasharray:none;stroke-dashoffset:0;stroke-opacity:1" />
  </g>
</svg>
